<?xml version="1.0" encoding="UTF-8"?>
<svg id="Layer_2" data-name="Layer 2" xmlns="http://www.w3.org/2000/svg" viewBox="0 0 476 473">
  <defs>
    <style>
      .cls-1 {
        stroke-width: 0px;
      }
    </style>
  </defs>
  <g id="Layer_1-2" data-name="Layer 1">
    <g id="_0ryIAW.tif" data-name="0ryIAW.tif">
      <path class="cls-1" d="m476,33c-8.07,4.68-13.82,11.97-20.19,18.46-23.66,24.09-43.89,50.87-60.49,80.28-13.17,23.34-24.23,47.74-35.44,72.07-4.94,10.72-10.4,21.21-15.77,31.74-1.13,2.21-1.77,4.13-.75,6.58,1.84,4.42-.05,8.58-1.63,12.55-1.27,3.19-1.63,6.36-1.84,9.71-.56,8.96-3.53,16.74-10.78,22.72-6.09,5.02-8.53,10.82-7.12,19.66,2.18,13.57,4.7,27.16,5.84,40.9.15,1.77.04,3.87-.79,5.35-3.34,5.96-4.87,12.75-8.04,18.59-2.89,5.34-4.45,10.85-6.33,16.43-4.44,13.22-10.2,25.86-16.94,38.12-3.13,5.69-6.96,10.91-9.96,16.64-1.04,1.98-2.84,2.71-4.76,3.33-5.22,1.69-10.59,3.04-15.42,5.73-7.95,4.43-15.83.94-23.11-1.18-13.54-3.94-26.16-10.58-39.14-16.15-6.04-2.59-12.64-3.33-18.84-6.01-11.66-5.03-19.29-13.85-26.31-23.66-3.7-5.18-6.79-10.4-6.73-17.27.06-6.95,3.62-12.39,6.72-17.87,2.41-4.27,12.95-4.78,18.17-1.92,3.18,1.75,5.81,10.73,4.42,15.04-.83,2.57-2.75,3.09-5.14,2.79-2.97-.37-5.96-.62-8.91-1.11-1.57-.26-3.13-.27-2.31,1.68,1.31,3.12,1.65,6.86,5.16,8.79,3.56,1.96,6.21,5.03,8.75,8.1,8.13,9.83,19.07,11.03,26.94.48,5.53-7.41,12.77-13.68,18.45-20.82,6.27-7.88,13.41-16.29,12.45-28.25-.64-7.97-2.49-16.62,1.82-24.06,5.31-9.17,11.17-18.07,23.28-19.75,3.62-.5,7.3-1.88,10.58-4.07,4.37-2.91,9.71-1.63,14.57-2.51,2.75-.49,4.99-1.19,7.08-3.11,7.81-7.18,16.67-13.49,21.5-23.26,4.55-9.2,9.83-17.68,17.91-24.21,1.33-1.07,1.99-2.65,2.46-4.27.63-2.15,1.08-4.39-.77-6.08-1.97-1.81-4.47-1.55-6.55-.35-8.85,5.08-15.92,12.44-23.8,18.75-5.4,4.32-11.15,8.43-17.02,12.26-6.4,4.18-13.19,7.87-19.12,12.63-6.69,5.37-14.92,7.04-22.27,10.75-7.45,3.76-15.45,5.64-23.69,7.15-18.89,3.47-37.98,2.54-56.71,1.05-25.16-2.01-48.63-10.8-67.82-28.09-5.87-5.28-11.18-11.6-14.48-18.93-2.51-5.58-6.73-9.08-11.61-11.78-8.33-4.62-14.95-10.75-20.49-18.51-5.29-7.41-11.97-13.81-14.15-23.16-1.43-6.12-3.44-12.11-5.19-18.16-.09-.32-.26-.68-.18-.97,2.14-8.34,5.17-16.4,9.64-23.7,1.5-2.46,5.4-1.44,7.87.05,4.33,2.62,8.92,4.24,13.81,5.49,8.61,2.2,12.19,8.9,12.91,17.01.54,5.97,2.15,11.65,4.93,16.59,5.87,10.42,9.13,22.08,16.18,31.97,5.77,8.09,14.93,12.81,24.95,11.37,4.26-.61,8.6-1.12,12.89-1.04,7.68.13,11.4,6.13,15.5,11.35,7.37,9.37,17.34,15.57,27.55,20.93,8.46,4.44,17.45,1.94,25.54-2.75,4.16-2.41,8.02-5.35,12.23-7.66,8.59-4.7,18.35-5.76,27.71-7.05,7.58-1.05,15.54-.85,23.36-.75,7.56.09,15.24-1.16,22.66-3.09,12.89-3.36,24.24-9.84,35.13-17.32,2.54-1.75,5.27-3.01,8.78-2.87,4.48.18,6.22-3.99,7.9-7.25,7.46-14.48,14.38-29.23,21.17-44.05,12.6-27.51,25.21-55.04,42.21-80.28,11.65-17.3,24.42-33.58,39.06-48.5,10.69-10.89,20.8-22.36,32.48-32.26v11ZM168.65,379.99c3.36.43,5.17-2.43,5.55-5.63.36-3.01-2.34-4.19-5.07-4.15-3.59.05-6.28,2.06-6.7,5.49-.42,3.51,2.55,4.16,6.22,4.29Z"/>
    </g>
  </g>
</svg>