<?xml version="1.0" encoding="UTF-8"?>
<svg id="Layer_2" data-name="Layer 2" xmlns="http://www.w3.org/2000/svg" viewBox="0 0 179 135.27">
  <defs>
    <style>
      .cls-1 {
        stroke-width: 0px;
      }
    </style>
  </defs>
  <g id="Layer_1-2" data-name="Layer 1">
    <g id="j4ncwo.tif">
      <path class="cls-1" d="m104.05,98.54c-.5,1.68-1.04,3.35-1.47,5.05-.6,2.4-1.21,4.8-1.11,7.31.04,1.01.2,1.99.68,2.87.99,1.84,1.75,3.76,2.09,5.82.14.85.57,1.04,1.34,1.01,2.01-.08,3.77-.92,5.54-1.73.71-.32,1.37-.73,2.19-1.17-.12.66-.5.92-.82,1.17-1.75,1.32-3.47,2.66-5.67,3.26-1.1.3-2-.21-3-.31-2.51-.23-4.86-1.17-7.28-1.8-1.81-.47-3.69-.76-5.57-.84-1.16-.05-2.26-.15-3.3-.76-1.38-.81-2.11-1.96-2.18-3.54-.08-1.79-.05-3.59-.23-5.38-.29-2.98-.94-5.87-2.08-8.68-1.55-3.8-4.16-6.7-7.03-9.52-2.05-2.02-4.49-3.29-7.02-4.41-1.83-.82-2.95-2.08-3.49-3.93-.88-3.03-1.78-6.03-1.58-9.27.13-2.06.68-4.02.94-6.03.43-3.29,1.11-6.63-.83-9.75-1.17-1.88-2.77-2.88-5.04-2.87-6.16.05-12.32-.27-18.46-.81-3.97-.34-7.93-.94-11.75-2.1-3.1-.94-6.13-2.14-9.09-3.46-.23-.1-.46-.27-.69-.27-1.33.01-2.22-.76-3.09-1.62-2.05-2.02-4.31-3.8-6.3-5.89-2.5-2.62-4.88-5.35-7.14-8.18-.23-.29-.42-.62-.7-.86-1.45-1.25-1.83-2.85-1.63-4.68.08-.73,0-1.49.02-2.23,0-.23-.09-.55.23-.62.24-.05.34.21.47.39,2.66,3.61,5.35,7.19,8.32,10.56,2.96,3.35,6.19,6.41,9.73,9.13,1.12.86,2.29,1.67,3.77,1.91.64.1.94.83,1.6,1.04,1.59.5,3.16,1.06,4.75,1.6,2.65.89,5.38,1.41,8.13,1.85,2.35.38,4.73.59,7.1.81,3.6.33,7.21.66,10.82.89,1.51.1,3.01.37,4.52.41,1.33.03,2.6.11,3.87.71,2.24,1.05,4.73,1.42,7.07,2.18,3.21,1.03,6.4.85,9.62.27,4.33-.78,8.5-.36,12.29,1.92,2.28,1.37,4.24,3.25,5.68,5.53,1.24,1.96,2.34,4,3.49,6.01.26.46.59.77,1.12.87,1.83.35,3.58.96,5.34,1.54,2.64.87,5.23,1.89,7.75,3.07,2.39,1.12,4.71,2.36,6.61,4.22,1.95,1.92,4.32,3.31,6.36,5.11,2.18,1.92,4.39,3.8,6.56,5.73.75.67,1.11,1.73,2.16,2.11.58.21,1.13.51,1.69.75,1,.44,1.88.98,2.65,1.81.66.71,1.55,1.22,2.37,1.77,1.6,1.07,3.1,2.25,4.4,3.68.5.55,1.05,1.03,1.71,1.41.96.56,1.79,1.31,2.6,2.09,1.08,1.06,2.32,1.58,3.93,1.73,3.44.34,6.78-.5,10.17-.54.21,0,.43-.1.61.12.01.31-.24.34-.44.35-2.16.14-4.15.94-6.16,1.63-3.44,1.18-6.91,1.3-10.4.29-.88-.26-1.58-.07-2.37.35-2.29,1.21-4.59,2.57-7.34,2.13-1.95-.31-3.88-.79-5.82-1.18-2.3-.46-4.61-.86-6.91-1.34-2.75-.57-5.56-.83-8.25-1.73-1.21-.41-2.58-.08-3.88-.26-4.71-.66-8.8-2.41-11.71-6.36-.07-.1-.16-.19-.26-.26-.04-.03-.11-.04-.22-.07Z"/>
    </g>
  </g>
</svg>