<?xml version="1.0" encoding="UTF-8"?>
<svg id="Layer_2" data-name="Layer 2" xmlns="http://www.w3.org/2000/svg" viewBox="0 0 466.04 483.12">
  <defs>
    <style>
      .cls-1 {
        fill: #323232;
        stroke-width: 0px;
      }
    </style>
  </defs>
  <g id="Layer_1-2" data-name="Layer 1">
    <path class="cls-1" d="m410.27,322.08c-12.95-.78-12.78-.5-11.63-13.24.99-10.93,1.68-21.89,2.08-32.86.2-5.35,2.4-10.34,1.99-15.78-.41-5.42-1.81-7.22-7.24-7.28-7.33-.07-14.67-.07-22,.05-5.91.1-9.28,4.47-8.04,10.4.62,2.96.93,5.92.93,8.93-.03,14.3,2.8,28.45,2.18,42.8-.28,6.5-.25,6.67-6.66,6.92-16.63.63-33.34.59-49.86,2.37-11.36,1.23-22.94,1.27-34.07,3.95-5.19,1.25-10.15,1.97-15.47,1.93-3.8-.03-6.08-1.23-8.43-4.01-4.37-5.17-8.7-11.96-15.97-11.66-8.27.35-8.19-4.65-8.91-9.78-1.58-11.32-2.54-22.74-4.58-33.97-2.82-15.53-3.95-31.26-6.42-46.84-3.16-19.91-3.82-40.16-2.03-60.18,2.08-23.2,10.61-44.18,25.05-62.97,8.3-10.79,16.96-21.01,27.88-28.95,11.84-8.61,24.51-15.92,38.54-20.7,9.92-3.38,20.13-5.62,30.13-8.64.63-.19,1.31-.3,1.97-.31,23.65-.24,47.31-1.06,70.94.7,14.27,1.06,28.47,2.74,42.32,6.4,4.16,1.1,8.19,2.7,12.23,4.24l-.07-37.91c-4.72-1.81-9.46-3.59-14.32-4.89-17.95-4.8-36.21-7.9-54.69-10.11-13.15-1.57-26.08-.4-38.74,1.79-14.62,2.52-29.26,5.37-43.5,10.1-21.18,7.04-39.91,18.06-57.08,32.04-23.37,19.04-40.2,42.79-50.98,70.91-.68,1.78-1.29,7.45-1.29,7.45l-3,19c-.53,5.77-1,10-2,18-.86,6.86-.05,11.52-1,17,.71,4.01,0,8,.67,11.25.36,15.31,1.77,30.52,5.35,45.39,2.07,8.61,2.29,17.42,4.24,26.02,1.82,8.06,3.23,16.22,4.62,24.36,1.79,10.49,3.09,21.07,5.2,31.49,1.01,4.96,2.76,10.03,6.35,13.86,1.62,1.73,2.89,3.16,2.29,5.55-.6,2.38-2.7,2.59-4.62,3.19-14.9,4.64-30.12,8.27-44.67,13.98-9.1,3.57-17.98,5.87-27.36.87-7.04-3.75-14.26-7.17-20.96-11.53-22.03-14.35-44.18-28.5-67.07-41.46-2.87-1.62-5.77-2.82-8.97-1.16-14.8,7.69-31.72,9.88-46.41,17.89-2.66,1.45-7.17,1.44-7.2,5.08-.03,3.15,3.86,4.65,6.43,6.41,1.21.83,2.69,1.29,4.08,1.83,3.23,1.25,6.59,2.24,9.72,3.7,11.51,5.36,21.04,12.97,28.73,23.3,6.16,8.27,12.86,16.22,18.08,25.08,5.57,9.45,10.55,19.15,17.57,27.72,13.28,16.21,31.46,20.68,50.98,21.83,3.27.19,6.04.31,8.81,2.21,10.73,7.37,22.07,13.46,34.5,17.69,8.74,2.97,74.83,29.78,79.94,27.06.55-.29,1.75.81,2.7,1.08,1.1.31,19.46,1.28,21.5.93,8.78-1.52,65.86,1.79,85.64,2.27,31.63.77,63.23-.47,94.8-2.68.93-.07,1.78-.06,2.56,0l-.3-154.6c-18.4-2.77-36.98-2.42-55.47-3.54Z"/>
  </g>
</svg>