<?xml version="1.0" encoding="UTF-8"?>
<svg id="Layer_2" data-name="Layer 2" xmlns="http://www.w3.org/2000/svg" viewBox="0 0 724.1 334.13">
  <defs>
    <style>
      .cls-1 {
        stroke-width: 0px;
      }
    </style>
  </defs>
  <g id="Layer_1-2" data-name="Layer 1">
    <g>
      <path class="cls-1" d="m0,290.37c2.34-3.74,4.39-4.45,9.43-3.94,8.43.85,16.88,2.16,25.32,2.1,28.1-.18,53.36-8.67,75.87-24.44,3.44-2.41,6.81-4.93,9.95-7.68,4.33-3.78,3.96-7.75-1.04-10.63-19.41-11.17-39.3-21.51-61.73-26.32-7.63-1.64-11.66-5.27-12.3-12.62-.59-6.76-2.15-13.48-.13-20.23.48-1.6,1.1-3.2,1.91-4.66,2.51-4.51,6.07-4.88,9.66-1.1,3.07,3.23,6.02,6.57,9.22,9.68,8.14,7.9,18.46,12.43,29.12,16.43,14.27,5.35,28.51,10.77,42.73,16.24,5.6,2.15,8.83,1.26,11.06-3.99,4.69-11,5.71-22.34,2.35-33.85-1.58-5.42-6.96-7.85-14.76-7.21-6.96.57-13.15,3.02-18.99,6.48-3.63,2.15-7.28,4.29-11.08,6.15-2.23,1.09-4.76,2.55-7.3.58-1.75-1.36-2.46-6.3-1.14-8.67.85-1.53,1.98-3.28,3.49-4.05,9.89-5.08,13.59-13.7,15.72-23.34.79-3.56,1.77-7.09,2.5-10.66.96-4.67-.51-7.21-5.39-8.53-9.09-2.45-18.11-2.7-26.98,1.15-3.3,1.44-6.8,2.59-10.33,3.42-4.07.96-6.09.04-7.87-3.56-1.84-3.74-3.19-7.68-4.8-11.53-2.25-5.4-4.72-10.73-6.76-16.2-2.19-5.84.24-9.99,6.74-11.14,4.5-.8,9.15-.89,13.74-1.13,15.2-.8,30.16-3.07,44.9-6.57,5.57-1.32,5.99-1.84,6.44-7.16,1.08-12.86,1.95-25.73,3.17-38.58,1.07-11.37,2.38-22.73,3.79-34.06,1.05-8.46,6.61-12.11,15.05-10.24,4.81,1.07,6.96,3.89,5.98,8.45-.99,4.62-3,9.12-3.42,13.76-1.2,13.23-1.85,26.51-2.62,39.77-.19,3.34-.03,6.7-.03,10.05,0,6.43,4.52,9.55,11.06,7.83,13.09-3.45,26.21-6.81,39.33-10.15,1.6-.41,3.29-.66,4.95-.7,4.43-.11,7.49,2.39,8.54,7.17,1.66,7.62.37,14.36-6.37,19.77-16.19,13.01-32.52,25.75-52.09,34.21-6.45,2.79-8.34,8.45-9.1,14.57-.04.29-.04.59-.06.89-.42,8,1.08,9.25,9.57,8.74,12.43-.75,24.12,2.14,35.16,7.25,6.43,2.98,8.88,8.55,6.97,15.11-1.38,4.73-3.81,9.26-4.67,14.05-2.55,14.23-11.13,25.52-19.4,37-2.05,2.85-3.71,5.84-3.16,9.33.25,1.62,1.02,3.72,2.31,4.58,18.54,12.27,35.93,26.15,57.09,34.71,16.85,6.82,34.08,12.52,51.55,17.7,14.05,4.16,27.45,9.72,38.95,18.59,2.71,2.09,5.22,4.64,7.08,7.42,3.81,5.67,1.45,10.74-5.57,11.75-6.18.89-12.5.94-18.76,1.39-1.02.07-2.02.28-3.03.42h-14.46c-1.32-.18-2.64-.37-3.97-.53-9.74-1.18-19.57-1.88-29.19-3.66-10.44-1.93-20.63-5.08-31.03-7.26-6.35-1.33-10.3-4.62-12.85-10.09-3.07-6.57-6.42-13.03-9.82-19.45-7.85-14.84-20.15-24.99-36.93-30.08-8.5-2.58-16.1-1.67-23.1,4.65-14.51,13.1-31.03,23.72-49.29,31.7-8.27,3.61-15.84,7.4-21.05,15.03-3.91,5.72-8.44,6.08-15.47,3.92-3.85-1.18-7.85-2.2-11.87-2.57-9.03-.83-17.45-3.18-25.05-7.84-7.06-4.34-14.56-8.33-17.76-16.4v-1.18Z"/>
      <path class="cls-1" d="m537.16,278.88c2,.19,4.03.22,5.98.59,11.17,2.13,22.25,4.79,33.5,6.41,13.36,1.93,26.87,2.6,40.35.44,7.26-1.16,12.01-4.99,12.59-11.98.69-8.42,1.29-16.93.78-25.34-1.18-19.46-2.82-38.91-4.76-58.32-.83-8.3-2.87-16.5-4.39-24.73-.58-3.14-3-2.36-5.15-2-6.59,1.13-13.12,2.66-19.76,3.34-10.81,1.1-21.69,1.62-32.53,2.47-2.12.17-4.2.73-6.29,1.1.91,1.8,1.63,3.72,2.77,5.38,5.76,8.34,11.81,16.5,17.4,24.94,5.7,8.6,4.02,15.06-5.12,20.56-8.09,4.87-17.32,6.27-26.67,6.74-4.27.22-5.39-1.51-3.74-5.88,5.54-14.69,3.85-29.51,1.23-44.35-1-5.67-2.48-6.47-8.38-4.97-6.89,1.75-13.54,3.9-19.3,8.18-4.42,3.29-6.76,2.21-8.1-2.93-1.56-6.02-3.33-11.98-4.94-17.99-1.3-4.88,0-6.51,5.34-6.16,11.9.79,23.34-1.4,34.67-4.39,23.46-6.19,46.92-12.4,70.35-18.68,8.63-2.31,7.23-1.93,7.76-9.59,1.15-16.6,2.48-33.19,4.21-49.74,1.64-15.64,1.86-31.26,1.07-46.93-.09-1.77-.28-3.54-.31-5.31-.08-4.68,2.35-7.59,7.37-7.88,3.69-.21,7.64-.1,11.12.92,5.46,1.6,10.73,3.88,15.88,6.26,4.83,2.23,5.26,5.3,1.54,8.85-3.37,3.22-4.7,7.32-5.16,11.49-1.16,10.56-2.47,21.16-2.58,31.76-.15,14.37.75,28.74,1.24,43.11.04,1.17.34,2.33.58,3.49.56,2.77,2.34,3.75,5.25,3.21,10.27-1.9,20.51-3.82,30.19-7.78,7.33-2.99,13.79-1.37,18.62,4.69,2.05,2.57,3.66,5.5,5.15,8.4,2.73,5.31,5.18,10.74,7.84,16.08,3.15,6.32.66,10.75-6.69,11.48-2.16.22-4.45.25-6.55-.19-11.4-2.35-22.74-.68-34.07.35-4.27.39-8.53.96-12.75,1.65-5,.81-5.78,1.71-5.66,6.48.28,11.23.95,22.46.92,33.68-.04,13.49-.4,26.98-1.08,40.46-.69,13.55.78,26.93,2.22,40.37,1.43,13.41,2.08,26.89,2.87,40.35.13,2.29-.54,4.7-1.29,6.93-.88,2.62-3.26,3.95-5.96,2.94-15.8-5.87-32.91-6.41-49.06-10.98-24.05-6.81-45.3-18.25-65.1-32.4-1.43-1.02-2.57-2.41-3.84-3.63.15-.32.3-.64.45-.96Z"/>
      <path class="cls-1" d="m457.93,171.27c-2.06,2.31-4.12,4.62-6.18,6.92-6.25,7.01-12.14,14.35-18.85,20.95-8.07,7.95-24.76,8.45-33.46,1.66-3.83-2.99-4.15-5.35.01-7.68,14.44-8.1,23.62-20.72,33.02-33.16,14.98-19.83,30.26-39.51,42.17-61.16,8.02-14.58,15.17-29.6,22.53-44.5,4.87-9.86,9.84-11.12,19.25-5.01,5.83,3.78,12,7.13,18.17,10.44,4.57,2.45,5.6,5.42,2.37,9.35-1.84,2.24-3.99,4.33-6.29,6.16-6.33,5.04-10.88,11.23-13.41,18.59-3.89,11.33-11.06,20.68-19.34,29.42-1.25,1.32-2.52,2.64-3.85,3.9-3.14,2.96-4.36,6.47-4.37,10.67-.05,14.77.02,29.55-.66,44.3-.51,11-2.58,21.94-3.09,32.95-.71,15.54-.8,31.1-.79,46.66,0,6.18,1.14,12.35,1.48,18.55.38,6.98-2.03,9.09-9.46,8.61-3.34-.21-6.69-.5-9.99-.98-4.4-.65-5.6-2.44-5.72-6.64-.27-9.84-.94-19.67-1.13-29.5-.36-18.91-.54-37.82-.73-56.73-.07-6.5.09-13.01.06-19.51,0-1.3-.36-2.6-.56-3.9-.4-.11-.8-.22-1.2-.33Z"/>
    </g>
  </g>
</svg>