<?xml version="1.0" encoding="UTF-8"?>
<svg id="Layer_2" data-name="Layer 2" xmlns="http://www.w3.org/2000/svg" viewBox="0 0 203 54">
  <defs>
    <style>
      .cls-1 {
        fill: none;
        stroke: #ad453a;
        stroke-miterlimit: 10;
        stroke-width: 2px;
      }

      .cls-2 {
        fill: #ad453a;
        stroke-width: 0px;
      }
    </style>
  </defs>
  <g id="Layer_1-2" data-name="Layer 1">
    <rect class="cls-1" x="1" y="1" width="201" height="52" rx="10.02" ry="10.02"/>
    <g>
      <path class="cls-2" d="m11.02,16.69v-2.98h21.28v2.98h-8.87v23.63h-3.54v-23.63h-8.87Z"/>
      <path class="cls-2" d="m58.48,13.71v2.98h-14.84v8.46h13.83v2.98h-13.83v9.21h14.95v2.98h-18.49V13.71h18.38Z"/>
      <path class="cls-2" d="m80.68,13.71l10.4,26.61h-3.91l-2.91-8.01h-11.26l-2.98,8.01h-3.62l10.36-26.61h3.91Zm2.46,15.62l-4.44-12.41h-.07l-4.51,12.41h9.02Z"/>
      <path class="cls-2" d="m103.72,13.71l8.39,22.36,8.42-22.36h4.85v26.61h-3.35v-22.14h-.08l-8.31,22.14h-3.02l-8.31-22.14h-.07v22.14h-3.35V13.71h4.85Z"/>
      <path class="cls-2" d="m133.99,21.78c.53-1.68,1.34-3.16,2.4-4.45,1.07-1.29,2.4-2.32,3.99-3.09,1.59-.77,3.44-1.16,5.55-1.16s3.96.39,5.55,1.16c1.59.77,2.92,1.8,3.99,3.09,1.07,1.29,1.87,2.78,2.4,4.45.53,1.68.8,3.42.8,5.24s-.27,3.56-.8,5.24c-.53,1.68-1.34,3.16-2.4,4.45-1.07,1.29-2.4,2.32-3.99,3.07-1.59.76-3.44,1.14-5.55,1.14s-3.96-.38-5.55-1.14c-1.59-.76-2.92-1.78-3.99-3.07-1.07-1.29-1.87-2.78-2.4-4.45-.53-1.68-.8-3.42-.8-5.24s.27-3.56.8-5.24Zm3.26,9.21c.35,1.3.89,2.48,1.64,3.52.75,1.04,1.7,1.88,2.87,2.52s2.56.95,4.18.95,3.01-.32,4.18-.95,2.12-1.47,2.87-2.52c.75-1.04,1.29-2.22,1.64-3.52s.52-2.63.52-3.97-.17-2.67-.52-3.97c-.35-1.31-.89-2.48-1.64-3.52-.75-1.04-1.7-1.88-2.87-2.52-1.17-.63-2.56-.95-4.18-.95s-3.01.32-4.18.95c-1.17.63-2.12,1.47-2.87,2.52-.75,1.04-1.29,2.22-1.64,3.52-.35,1.3-.52,2.63-.52,3.97s.17,2.66.52,3.97Z"/>
      <path class="cls-2" d="m167.29,21.78c.53-1.68,1.33-3.16,2.4-4.45,1.07-1.29,2.4-2.32,3.99-3.09,1.59-.77,3.44-1.16,5.55-1.16s3.96.39,5.55,1.16c1.59.77,2.92,1.8,3.99,3.09,1.07,1.29,1.87,2.78,2.4,4.45.53,1.68.8,3.42.8,5.24s-.27,3.56-.8,5.24c-.54,1.68-1.34,3.16-2.4,4.45-1.07,1.29-2.4,2.32-3.99,3.07-1.59.76-3.44,1.14-5.55,1.14s-3.96-.38-5.55-1.14-2.92-1.78-3.99-3.07c-1.07-1.29-1.87-2.78-2.4-4.45-.54-1.68-.8-3.42-.8-5.24s.27-3.56.8-5.24Zm3.26,9.21c.35,1.3.89,2.48,1.64,3.52.75,1.04,1.7,1.88,2.87,2.52s2.56.95,4.18.95,3.01-.32,4.17-.95,2.13-1.47,2.87-2.52c.75-1.04,1.29-2.22,1.64-3.52.35-1.3.52-2.63.52-3.97s-.17-2.67-.52-3.97c-.35-1.31-.89-2.48-1.64-3.52-.75-1.04-1.7-1.88-2.87-2.52-1.17-.63-2.56-.95-4.17-.95s-3.01.32-4.18.95c-1.17.63-2.12,1.47-2.87,2.52-.75,1.04-1.29,2.22-1.64,3.52-.35,1.3-.52,2.63-.52,3.97s.17,2.66.52,3.97Z"/>
    </g>
  </g>
</svg>